0
SECTION
2
ENTITIES
0
LINE
8
WALLS
10
0.0
20
0.0
30
0.0
11
10.0
21
0.0
31
0.0
0
LINE
8
WALLS
10
10.0
20
0.0
30
0.0
11
10.0
21
6.0
31
0.0
0
LINE
8
WALLS
10
10.0
20
6.0
30
0.0
11
0.0
21
6.0
31
0.0
0
LINE
8
WALLS
10
0.0
20
6.0
30
0.0
11
0.0
21
0.0
31
0.0
0
LINE
8
DUCT
10
1.0
20
4.5
30
0.9
11
8.0
21
4.5
31
0.9
0
INSERT
8
EQUIP
66
1
2
CHILLER
10
2.0
20
2.0
30
0.9
41
1.0
42
1.0
43
1.0
50
0.0
0
ATTRIB
8
EQUIP
1
CH-01
2
TAG
10
2.0
20
2.0
30
0.9
0
SEQEND
8
EQUIP
0
INSERT
8
EQUIP
66
1
2
CHILLER
10
7.0
20
2.0
30
0.9
41
1.0
42
1.0
43
1.0
50
0.0
0
ATTRIB
8
EQUIP
1
CH-02
2
TAG
10
7.0
20
2.0
30
0.9
0
SEQEND
8
EQUIP
0
ENDSEC
0
EOF
