0
SECTION
2
BLOCKS
0
BLOCK
8
0
2
BUFFER_TANK
10
0
20
0
30
0
70
0
0
CIRCLE
8
0
10
0
20
0
30
0
40
0.7
0
ENDBLK
8
0
0
ENDSEC
0
SECTION
2
ENTITIES
0
LINE
8
WALLS
10
0
20
0
30
0
11
12
21
0
31
0
0
LINE
8
WALLS
10
12
20
0
30
0
11
12
21
8
31
0
0
LINE
8
WALLS
10
12
20
8
30
0
11
0
21
8
31
0
0
LINE
8
WALLS
10
0
20
8
30
0
11
0
21
0
31
0
0
LINE
8
DUCT_DN250
10
3
20
4.8
30
0.9
11
6
21
4.8
31
0.9
0
LINE
8
DUCT_DN160
10
6
20
4.8
30
0.9
11
6
21
3
31
0.9
0
INSERT
8
EQUIP
66
1
2
CHILLER
10
2.5
20
6.5
30
0.9
41
1
42
1
43
1
50
0
0
ATTRIB
8
EQUIP
1
CH-01
2
TAG
10
2.5
20
6.5
30
0.9
0
SEQEND
8
EQUIP
0
INSERT
8
EQUIP
66
1
2
AHU
10
9
20
6.2
30
1.1
41
1
42
1
43
1
50
0
0
ATTRIB
8
EQUIP
1
2.8x1.6x2.2
2
SIZE
10
9
20
6.2
30
1.1
0
ATTRIB
8
EQUIP
1
AHU-01
2
TAG
10
9
20
6.2
30
1.1
0
SEQEND
8
EQUIP
0
INSERT
8
EQUIP
66
1
2
BUFFER_TANK
10
6
20
2
30
1
41
1
42
1
43
1
50
0
0
ATTRIB
8
EQUIP
1
TANK-01
2
TAG
10
6
20
2
30
1
0
SEQEND
8
EQUIP
0
INSERT
8
EQUIP
66
1
2
PUMP
10
2.5
20
3.5
30
0.45
41
1
42
1
43
1
50
0
0
ATTRIB
8
EQUIP
1
P-01
2
TAG
10
2.5
20
3.5
30
0.45
0
SEQEND
8
EQUIP
0
ENDSEC
0
EOF
